<svg width="124" height="36" viewBox="0 0 124 36" fill="none" xmlns="http://www.w3.org/2000/svg">
<path d="M35.4092 29.2563L21.8304 21.4201L11.1304 27.6562L12.8726 28.6582L10.2705 30.1686C8.68527 31.0883 6.09811 31.0883 4.50544 30.1686C2.91277 29.2489 2.90529 27.7534 4.48301 26.8337L7.2571 25.2261L5.38029 24.1419L2.6062 25.7495C-0.0108671 27.2674 0.00408757 29.7349 2.63611 31.2603C5.26813 32.7782 9.53021 32.7782 12.1473 31.2603L14.7494 29.7499L24.7017 35.4999L35.4018 29.2638L35.4092 29.2563Z" fill="#8AAE7A"/>
<g filter="url(#filter0_d_95_4253)">
<path d="M33.6146 15.184V11.3855C33.637 8.35715 31.506 4.67082 28.8739 3.15292C26.2419 1.63502 24.0959 2.85383 24.0884 5.87467V9.67316L21.8752 8.40201L21.8378 21.4126L35.4166 29.2488L35.454 16.2383L33.622 15.184H33.6146ZM25.9653 6.96636C25.9653 5.13442 27.2663 4.39416 28.8665 5.31387C30.4591 6.23358 31.7527 8.46931 31.7452 10.3013V14.0997L25.9578 10.7648V6.96636H25.9653Z" fill="white"/>
</g>
<path d="M49.5501 25.3706H56.4319V29.426H44.2965V7.85876H49.5501V25.3706Z" fill="white"/>
<path d="M62.4125 28.2278C60.7228 27.2856 59.3812 25.9697 58.3879 24.2799C57.3945 22.5902 56.8978 20.6905 56.8978 18.5809C56.8978 16.4713 57.3945 14.5767 58.3879 12.8972C59.3812 11.2177 60.7228 9.90691 62.4125 8.96475C64.1023 8.02259 65.961 7.55151 67.9886 7.55151C70.0163 7.55151 71.875 8.02259 73.5648 8.96475C75.2545 9.90691 76.5858 11.2177 77.5587 12.8972C78.5316 14.5767 79.018 16.4713 79.018 18.5809C79.018 20.6905 78.5265 22.5902 77.5433 24.2799C76.5602 25.9697 75.2289 27.2856 73.5494 28.2278C71.8699 29.1699 70.0163 29.641 67.9886 29.641C65.961 29.641 64.1023 29.1699 62.4125 28.2278ZM72.1208 23.1278C73.1551 21.9808 73.6723 20.4652 73.6723 18.5809C73.6723 16.6966 73.1551 15.1553 72.1208 14.0186C71.0865 12.8819 69.7091 12.3135 67.9886 12.3135C66.2682 12.3135 64.8601 12.8767 63.8257 14.0032C62.7914 15.1297 62.2743 16.6556 62.2743 18.5809C62.2743 20.5062 62.7914 22.0065 63.8257 23.1432C64.8601 24.2799 66.2477 24.8483 67.9886 24.8483C69.7296 24.8483 71.0865 24.2748 72.1208 23.1278Z" fill="white"/>
<path d="M82.1108 12.9126C83.0325 11.2433 84.3177 9.94273 85.9665 9.01082C87.6152 8.0789 89.4842 7.61295 91.5733 7.61295C94.1335 7.61295 96.3251 8.28884 98.1479 9.64063C99.9708 10.9924 101.189 12.8358 101.804 15.1707H96.0281C95.5979 14.2695 94.9886 13.5834 94.2001 13.1123C93.4115 12.6412 92.5155 12.4057 91.5119 12.4057C89.8938 12.4057 88.583 12.9689 87.5794 14.0954C86.5758 15.2219 86.074 16.7273 86.074 18.6116C86.074 20.4959 86.5758 22.0013 87.5794 23.1278C88.583 24.2543 89.8938 24.8175 91.5119 24.8175C92.5155 24.8175 93.4115 24.582 94.2001 24.1109C94.9886 23.6398 95.5979 22.9537 96.0281 22.0525H101.804C101.189 24.3874 99.9708 26.2257 98.1479 27.5672C96.3251 28.9088 94.1335 29.5795 91.5733 29.5795C89.4842 29.5795 87.6152 29.1136 85.9665 28.1817C84.3177 27.2497 83.0325 25.9543 82.1108 24.2953C81.1891 22.6362 80.7283 20.7417 80.7283 18.6116C80.7283 16.4815 81.1891 14.5818 82.1108 12.9126Z" fill="white"/>
<path d="M117.083 29.426L109.833 19.902V29.426H104.579V7.85876H109.833V17.3213L117.022 7.85876H123.197L114.841 18.4273L123.504 29.426H117.083Z" fill="white"/>
<defs>
<filter id="filter0_d_95_4253" x="19.8378" y="0.5" width="17.6162" height="30.7488" filterUnits="userSpaceOnUse" color-interpolation-filters="sRGB">
<feFlood flood-opacity="0" result="BackgroundImageFix"/>
<feColorMatrix in="SourceAlpha" type="matrix" values="0 0 0 0 0 0 0 0 0 0 0 0 0 0 0 0 0 0 127 0" result="hardAlpha"/>
<feOffset/>
<feGaussianBlur stdDeviation="1"/>
<feColorMatrix type="matrix" values="0 0 0 0 1 0 0 0 0 1 0 0 0 0 1 0 0 0 0.3 0"/>
<feBlend mode="normal" in2="BackgroundImageFix" result="effect1_dropShadow_95_4253"/>
<feBlend mode="normal" in="SourceGraphic" in2="effect1_dropShadow_95_4253" result="shape"/>
</filter>
</defs>
</svg>
